<svg width="51" height="38" viewBox="0 0 51 38" fill="none" xmlns="http://www.w3.org/2000/svg">
<path d="M0.00242846 28.4755C0.0364268 27.6311 0.359411 26.905 0.971382 26.297L7.34608 19.9643C7.82206 19.4576 8.38303 19.1537 9.029 19.0524C9.67497 18.951 10.2699 19.0186 10.8139 19.255C11.3579 19.4914 11.8169 19.8798 12.1908 20.4202C12.5648 20.9606 12.7518 21.5517 12.7518 22.1934V25.3345H41.4635C42.3134 25.3345 43.0614 25.0305 43.7073 24.4225C44.3533 23.8146 44.6593 23.0716 44.6253 22.1934V9.52787C44.6253 8.64972 44.3193 7.90668 43.7073 7.29873C43.0954 6.69078 42.3474 6.36992 41.4635 6.33615H15.9647C15.1827 6.33615 14.5197 6.11661 13.9758 5.67754C13.4318 5.23847 13.0918 4.71496 12.9558 4.10701C12.8198 3.49907 12.8198 2.89112 12.9558 2.28318C13.0918 1.67523 13.4318 1.13483 13.9758 0.661986C14.5197 0.189139 15.1827 -0.0303973 15.9647 0.00337748H41.4635C44.0813 0.00337748 46.3252 0.932184 48.1951 2.7898C50.065 4.64741 51 6.89343 51 9.52787V22.1934C51 24.8278 50.065 27.057 48.1951 28.8808C46.3252 30.7046 44.0813 31.6335 41.4635 31.6672H12.7518V34.8589C12.7518 35.5344 12.5648 36.1424 12.1908 36.6828C11.8169 37.2232 11.3409 37.5947 10.7629 37.7974C10.1849 38 9.58997 38.0507 8.978 37.9493C8.36603 37.848 7.82206 37.5609 7.34608 37.0881L0.971382 30.7553C0.291415 30.1136 -0.0315699 29.3537 0.00242846 28.4755Z" fill="#FAFAFA"/>
</svg>
